# xmcd
#
# Track frame offsets:
# 182
# 23977
# 40240
# 49022
# 63485
# 80907
# 100805
# 118677
# 133125
# 151292
# 171035
# 180092
# 193480
# 215825
# 230745
# 250192
# 263277
# 283770
#
# Disc length: 4002 seconds
#
#
# Revision: 0
# Processed by: cddbd v1.5.1PL0 Copyright (c) Steve Scherf et al.
# Submitted via: FreeRIP 2.70 
#
DISCID=060fa012
DTITLE=HERZHAFT BLUES - TWO BROTHERS AND A PICK
DYEAR=1996
DGENRE=Blues
TTITLE0=IF IT WASN'T FOR MUDDY WATERS
TTITLE1=ROCK ME ALL DAY LONG
TTITLE2=ELEMENTARY RAG
TTITLE3=RHONE RIVER IS RISING
TTITLE4=REDNECK BLUES
TTITLE5=LOVE ME TRUE
TTITLE6=HELP ME
TTITLE7=RUN BUDDY RUN
TTITLE8=LE BLUES DE L'AUTO-STOPPEUR
TTITLE9=OLD BLUESMAN FROM TEXAS
TTITLE10=BOTTLE UP AND GO
TTITLE11=POOR OLD CISCO
TTITLE12=THEY CALL ME PICH BOY
TTITLE13=FONTAINBLEAU RAG
TTITLE14=MY HOME ISN'T HERE
TTITLE15=BUILD MYSELF A CAVE
TTITLE16=MEXICAN BOOGIE
TTITLE17=OLD YIDDSH BLUES
EXTD=
EXTT0=
EXTT1=
EXTT2=
EXTT3=
EXTT4=
EXTT5=
EXTT6=
EXTT7=
EXTT8=
EXTT9=
EXTT10=
EXTT11=
EXTT12=
EXTT13=
EXTT14=
EXTT15=
EXTT16=
EXTT17=
PLAYORDER=
